<svg xmlns="http://www.w3.org/2000/svg" xmlns:xlink="http://www.w3.org/1999/xlink" width="800" height="800" viewBox="0 0 800 800"><defs><style>.cls-1{opacity:0.8;}.cls-2{fill:#c8e070;}.cls-3{fill:#cecece;}.cls-4{fill:#ff6607;}.cls-5{fill:#070000;}.cls-31,.cls-6{fill:#fff;}.cls-7{fill:#0bafff;}.cls-8{fill:#ff8a29;}.cls-9{fill:#002235;}.cls-10{fill:gray;}.cls-11{fill:#e6e6e6;}.cls-12{fill:#ccc;}.cls-13{fill:#bf7300;}.cls-14{fill:#ff9060;}.cls-15{fill:#ff6931;}.cls-16{fill:#ff834f;}.cls-17{fill:#cc7fdb;}.cls-18{fill:#6d4577;}.cls-19{fill:#9a60a8;}.cls-20,.cls-25{fill:#fffdf7;}.cls-21{fill:#2a869b;}.cls-22{fill:#106275;}.cls-23{fill:#3987b7;}.cls-24{fill:#1b3270;}.cls-25{opacity:0.7;}.cls-26{fill:#3a8aa0;}.cls-27{fill:#666;}.cls-28{fill:#4d4d4d;}.cls-29{fill:#4295b2;}.cls-30{fill:#7f7f7f;opacity:0.49;}.cls-31{opacity:0.5;}.cls-32{fill:#9e4020;}.cls-33{fill:#3491ad;}.cls-34{fill:#3381a0;}.cls-35{fill:#8e8e8e;}.cls-36{fill:#a0823f;}.cls-37{fill:#efc95e;}.cls-38{fill:#57c4dd;}.cls-39{fill:#fcfff7;}.cls-40{fill:#39b54a;}.cls-41,.cls-42{fill:none;stroke:#754c24;stroke-miterlimit:10;stroke-width:2px;}.cls-42{stroke-linecap:round;}.cls-43{fill:#fcee21;}.cls-44{fill:#f9e958;}</style></defs><title>background</title><g id="Layer_1" data-name="Layer 1"><image class="cls-1" width="800" height="800" xlink:href="../../Desktop/mailman/mailman2.jpg"/></g><g id="base_road" data-name="base/road"><rect class="cls-2" x="-9" y="-7" width="813" height="813"/><path class="cls-3" d="M853,108H192V-7H112V608H-39v80H612V802h80V188H853ZM612,608H192V188H612Z"/></g><g id="houses"><polygon class="cls-4" points="-19.5 231.5 40.5 188.5 100.5 231.5 100.5 302.5 -19.5 302.5 -19.5 231.5"/><rect class="cls-5" x="70.14" y="165.49" width="7.86" height="84.75" transform="translate(-137.03 143.57) rotate(-53.45)"/><rect class="cls-5" x="6.14" y="165.49" width="7.86" height="84.75" transform="translate(-150.92 339.76) rotate(-126.55)"/><rect x="2" y="257" width="79" height="46"/><rect class="cls-6" x="-10" y="235" width="99" height="15"/><polygon class="cls-7" points="692.5 528.5 752.5 485.5 812.5 528.5 812.5 599.5 692.5 599.5 692.5 528.5"/><rect class="cls-5" x="782.14" y="462.49" width="7.86" height="84.75" transform="translate(-87.66 835.63) rotate(-53.45)"/><rect class="cls-5" x="718.14" y="462.49" width="7.86" height="84.75" transform="translate(746.55 1385.59) rotate(-126.55)"/><rect x="714" y="554" width="79" height="46"/><rect class="cls-6" x="702" y="532" width="99" height="15"/><rect class="cls-8" x="297" y="42" width="59" height="57"/><polygon class="cls-8" points="211 99 296 99 296 34 251 6 211 34 211 99"/><polygon class="cls-9" points="251.84 5.46 208.27 35.34 206 31 251.57 0.12 251.84 5.46"/><polyline class="cls-9" points="251.6 5.47 298.36 34.66 300.41 30.22 251.53 0.06"/><rect class="cls-9" x="207" y="100" width="157" height="3"/><rect class="cls-10" x="232" y="100" width="44" height="3"/><rect class="cls-10" x="236" y="95" width="34" height="5"/><rect class="cls-10" x="241" y="91" width="26" height="6"/><rect class="cls-10" x="296" y="35" width="60" height="7"/><path d="M267,62s-3-10-14-10-12,10-12,10V91h26Z"/><path class="cls-11" d="M319,62.9s-1.15-4.44-5.38-4.44S309,62.9,309,62.9V70h10Z"/><path class="cls-11" d="M343,62.9s-1.15-4.44-5.38-4.44S333,62.9,333,62.9V70h10Z"/><circle class="cls-12" cx="253" cy="30" r="9"/><rect class="cls-13" x="503" y="31" width="90" height="73"/><rect class="cls-14" x="503" y="62" width="90" height="7"/><rect class="cls-15" x="534" y="74" width="30" height="30"/><rect class="cls-6" x="570" y="74" width="15" height="17"/><rect class="cls-6" x="512" y="74" width="15" height="17"/><rect class="cls-6" x="569" y="38" width="15" height="17"/><rect class="cls-6" x="540" y="38" width="15" height="17"/><rect class="cls-6" x="511" y="38" width="15" height="17"/><path class="cls-16" d="M600,33c-5,1-96,2-101,0s3-3,4-9.5S503,3,503,3h90V23C593,26,605,32,600,33Z"/><rect class="cls-17" x="701" y="196" width="99" height="97"/><polygon class="cls-18" points="754 192 698 241 810 241 754 192"/><rect class="cls-19" x="701" y="241" width="103" height="52"/><rect class="cls-17" x="729" y="264" width="45" height="29"/><rect class="cls-20" x="709" y="247" width="16" height="10"/><rect class="cls-20" x="733" y="247" width="16" height="10"/><rect class="cls-20" x="754" y="247" width="16" height="10"/><rect class="cls-20" x="778" y="247" width="16" height="10"/><rect class="cls-21" x="207" y="685" width="85" height="114"/><polygon class="cls-22" points="249.5 681 204 719 295 719 249.5 681"/><rect class="cls-23" x="207" y="719" width="85" height="80"/><rect class="cls-24" x="226" y="770" width="45" height="29"/><rect class="cls-25" x="216" y="728" width="16" height="16"/><rect class="cls-25" x="241" y="728" width="16" height="16"/><rect class="cls-25" x="267" y="728" width="16" height="16"/><rect class="cls-25" x="216" y="751" width="16" height="16"/><rect class="cls-25" x="241" y="751" width="16" height="16"/><rect class="cls-25" x="267" y="751" width="16" height="16"/><rect class="cls-26" x="491" y="699" width="113" height="101"/><rect class="cls-27" x="552" y="758" width="28" height="42"/><rect class="cls-27" x="513" y="758" width="28" height="42"/><rect class="cls-6" x="505" y="710" width="18" height="39"/><rect class="cls-6" x="539" y="710" width="18" height="39"/><rect class="cls-6" x="573" y="710" width="18" height="39"/><rect class="cls-28" x="485" y="688" width="122" height="11"/><rect class="cls-29" x="407" y="718" width="84" height="82"/><rect class="cls-30" x="418" y="738" width="64" height="64"/><rect class="cls-31" x="418" y="747" width="64" height="3"/><rect class="cls-31" x="418" y="757" width="64" height="3"/><rect class="cls-31" x="418" y="767" width="64" height="3"/><rect class="cls-31" x="418" y="777" width="64" height="3"/><rect class="cls-31" x="418" y="787" width="64" height="3"/><rect class="cls-32" x="-2" y="533" width="105" height="65"/><polygon class="cls-33" points="-2 533 107.18 533 110 523 -2 523 -2 533"/><polygon class="cls-34" points="-2 501 99.95 501 112 523 -2 523 -2 501"/><rect class="cls-6" x="43" y="542" width="54" height="45"/><rect class="cls-35" x="6" y="544" width="27" height="54"/><rect class="cls-23" x="185" y="697" width="3" height="21"/><path class="cls-23" d="M202,704H176s-1-11,4-11h20C203,693,202,704,202,704Z"/><path d="M199,694h-2s-2.87,0-2.44,10H201S202,694,199,694Z"/><rect class="cls-32" x="87" y="476" width="3" height="21"/><path class="cls-32" d="M104,483H78s-1-11,4-11h20C105,472,104,483,104,483Z"/><path d="M101,473H99s-2.87,0-2.44,10H103S104,473,101,473Z"/><polygon class="cls-28" points="592.57 235.82 543.24 235.82 540 242.29 595 242.29 592.57 235.82"/><rect class="cls-28" x="587.72" y="223.69" width="2.43" height="13.75"/><rect class="cls-28" x="545.66" y="223.69" width="2.43" height="13.75"/><rect class="cls-28" x="541.62" y="225.31" width="51.76" height="2.43"/><rect class="cls-28" x="541.62" y="229.35" width="51.76" height="2.43"/><rect class="cls-28" x="541.62" y="232.59" width="51.76" height="2.43"/><rect class="cls-28" x="588.53" y="240.68" width="1.62" height="6.47"/><rect class="cls-28" x="590.96" y="240.68" width="1.62" height="11.32"/><rect class="cls-28" x="544.85" y="240.68" width="1.62" height="6.47" transform="translate(1091.32 487.82) rotate(-180)"/><rect class="cls-28" x="542.43" y="240.68" width="1.62" height="11.32" transform="translate(1086.47 492.68) rotate(-180)"/><polygon class="cls-28" points="67.57 709.82 18.23 709.82 15 716.29 70 716.29 67.57 709.82"/><rect class="cls-28" x="62.72" y="697.69" width="2.43" height="13.75"/><rect class="cls-28" x="20.66" y="697.69" width="2.43" height="13.75"/><rect class="cls-28" x="16.62" y="699.31" width="51.76" height="2.43"/><rect class="cls-28" x="16.62" y="703.35" width="51.76" height="2.43"/><rect class="cls-28" x="16.62" y="706.59" width="51.76" height="2.43"/><rect class="cls-28" x="63.53" y="714.68" width="1.62" height="6.47"/><rect class="cls-28" x="65.96" y="714.68" width="1.62" height="11.32"/><rect class="cls-28" x="19.85" y="714.68" width="1.62" height="6.47" transform="translate(41.32 1435.82) rotate(-180)"/><rect class="cls-28" x="17.43" y="714.68" width="1.62" height="11.32" transform="translate(36.47 1440.68) rotate(-180)"/></g><g id="Layer_4" data-name="Layer 4"><rect class="cls-36" x="203" y="193" width="396" height="9"/><polygon class="cls-37" points="592 187 597.5 181 603 187 603 210 592 210 592 187"/><polygon class="cls-37" points="573 187 578.5 181 584 187 584 210 573 210 573 187"/><polygon class="cls-37" points="556 187 561.5 181 567 187 567 210 556 210 556 187"/><polygon class="cls-37" points="537 187 542.5 181 548 187 548 210 537 210 537 187"/><polygon class="cls-37" points="520 187 525.5 181 531 187 531 210 520 210 520 187"/><polygon class="cls-37" points="501 187 506.5 181 512 187 512 210 501 210 501 187"/><polygon class="cls-37" points="484 187 489.5 181 495 187 495 210 484 210 484 187"/><polygon class="cls-37" points="465 187 470.5 181 476 187 476 210 465 210 465 187"/><polygon class="cls-37" points="448 187 453.5 181 459 187 459 210 448 210 448 187"/><polygon class="cls-37" points="429 187 434.5 181 440 187 440 210 429 210 429 187"/><polygon class="cls-37" points="412 187 417.5 181 423 187 423 210 412 210 412 187"/><polygon class="cls-37" points="393 187 398.5 181 404 187 404 210 393 210 393 187"/><polygon class="cls-37" points="376 187 381.5 181 387 187 387 210 376 210 376 187"/><polygon class="cls-37" points="357 187 362.5 181 368 187 368 210 357 210 357 187"/><polygon class="cls-37" points="340 187 345.5 181 351 187 351 210 340 210 340 187"/><polygon class="cls-37" points="321 187 326.5 181 332 187 332 210 321 210 321 187"/><polygon class="cls-37" points="305 187 310.5 181 316 187 316 210 305 210 305 187"/><polygon class="cls-37" points="286 187 291.5 181 297 187 297 210 286 210 286 187"/><polygon class="cls-37" points="269 187 274.5 181 280 187 280 210 269 210 269 187"/><polygon class="cls-37" points="250 187 255.5 181 261 187 261 210 250 210 250 187"/><polygon class="cls-37" points="233 187 238.5 181 244 187 244 210 233 210 233 187"/><polygon class="cls-37" points="214 187 219.5 181 225 187 225 210 214 210 214 187"/><polygon class="cls-37" points="197 187 202.5 181 208 187 208 210 197 210 197 187"/><rect class="cls-36" x="198" y="589" width="396" height="9"/><polygon class="cls-37" points="587 583 592.5 577 598 583 598 606 587 606 587 583"/><polygon class="cls-37" points="568 583 573.5 577 579 583 579 606 568 606 568 583"/><polygon class="cls-37" points="551 583 556.5 577 562 583 562 606 551 606 551 583"/><polygon class="cls-37" points="532 583 537.5 577 543 583 543 606 532 606 532 583"/><polygon class="cls-37" points="515 583 520.5 577 526 583 526 606 515 606 515 583"/><polygon class="cls-37" points="496 583 501.5 577 507 583 507 606 496 606 496 583"/><polygon class="cls-37" points="479 583 484.5 577 490 583 490 606 479 606 479 583"/><polygon class="cls-37" points="460 583 465.5 577 471 583 471 606 460 606 460 583"/><polygon class="cls-37" points="443 583 448.5 577 454 583 454 606 443 606 443 583"/><polygon class="cls-37" points="424 583 429.5 577 435 583 435 606 424 606 424 583"/><polygon class="cls-37" points="407 583 412.5 577 418 583 418 606 407 606 407 583"/><polygon class="cls-37" points="388 583 393.5 577 399 583 399 606 388 606 388 583"/><polygon class="cls-37" points="371 583 376.5 577 382 583 382 606 371 606 371 583"/><polygon class="cls-37" points="352 583 357.5 577 363 583 363 606 352 606 352 583"/><polygon class="cls-37" points="335 583 340.5 577 346 583 346 606 335 606 335 583"/><polygon class="cls-37" points="316 583 321.5 577 327 583 327 606 316 606 316 583"/><polygon class="cls-37" points="300 583 305.5 577 311 583 311 606 300 606 300 583"/><polygon class="cls-37" points="281 583 286.5 577 292 583 292 606 281 606 281 583"/><polygon class="cls-37" points="264 583 269.5 577 275 583 275 606 264 606 264 583"/><polygon class="cls-37" points="245 583 250.5 577 256 583 256 606 245 606 245 583"/><polygon class="cls-37" points="228 583 233.5 577 239 583 239 606 228 606 228 583"/><polygon class="cls-37" points="209 583 214.5 577 220 583 220 606 209 606 209 583"/><polygon class="cls-37" points="192 583 197.5 577 203 583 203 606 192 606 192 583"/><polygon class="cls-37" points="191 193 196.5 187 197 606 191 606 191 193"/><rect class="cls-36" x="190.5" y="193" width="2" height="413" transform="translate(383 799) rotate(180)"/><polygon class="cls-37" points="608.5 196 603 190 602.5 609 608.5 609 608.5 196"/><rect class="cls-36" x="607" y="196" width="2" height="413"/><path class="cls-38" d="M582.07,346h-33c-4.38-1.62-10.12-5.86-10.12-17,0-13.88,8.92-17.06,13-17.78V311h31s15-4,15-18-15-18-15-18H326s-15,0-15,18,15,18,15,18h21v.32c3.35,1.19,14,5.88,14,17.68,0,10.21-8,15.1-12.3,17H274.93S257,346,257,364c0,8.1,3.63,12.55,7.63,15H221.16S206,379,206,397s15.16,18,15.16,18H275v.22c4.08.73,13,3.9,13,17.78s-8.92,17.06-13,17.78V451H244s-15,4-15,18,15,18,15,18h47.12c-4.38,1.62-10.12,5.86-10.12,17,0,18,15,18,15,18H553s15-4,15-18-15-18-15-18H505.88c4.38-1.62,10.12-5.86,10.12-17,0-18-15-18-15-18H480v-.32c-3.35-1.19-14-5.88-14-17.68s10.65-16.49,14-17.68V415h.84S496,411,496,397c0-7.68-4.56-12.35-8.68-15h94.75S600,378,600,364,582.07,346,582.07,346Z"/><path class="cls-39" d="M528.16,343a6.84,6.84,0,0,1-2,4.42,4.3,4.3,0,0,1-2.28,1,6.72,6.72,0,0,1-2.51-.16,15.73,15.73,0,0,1-4.54-2.07,39.78,39.78,0,0,1-4-3l.56-.23a8.14,8.14,0,0,1-1.79,4.48,4.56,4.56,0,0,1-2.12,1.36,5.55,5.55,0,0,1-2.49.1,12.83,12.83,0,0,1-4.43-1.83,33.31,33.31,0,0,1-3.81-2.78l.74-.21a9.16,9.16,0,0,1-3.13,4.29,6.18,6.18,0,0,1-5.25.86,13.28,13.28,0,0,1-4.63-2.47,31.76,31.76,0,0,1-3.77-3.52l.78-.23a8.67,8.67,0,0,1-2.32,4.47,5.58,5.58,0,0,1-4.81,1.43,12.6,12.6,0,0,1-4.59-1.84,31,31,0,0,1-3.91-2.91l.47-.13a6.89,6.89,0,0,1-2.51,3.23,5.26,5.26,0,0,1-4,.73,9.48,9.48,0,0,1-1.94-.59c-.58-.33-1.2-.6-1.75-1s-1.11-.74-1.61-1.18L455,344l1.57,1.23c.52.41,1.11.73,1.65,1.1s1.17.6,1.76.9a9.17,9.17,0,0,0,1.88.5,4.84,4.84,0,0,0,3.63-.8,6.37,6.37,0,0,0,2.23-3l.15-.4.32.26a30.37,30.37,0,0,0,3.89,2.76,11.87,11.87,0,0,0,4.34,1.64,4.8,4.8,0,0,0,4.1-1.25,7.82,7.82,0,0,0,2-4l.18-.87.6.64a30.86,30.86,0,0,0,3.67,3.39,12.35,12.35,0,0,0,4.29,2.26,5.29,5.29,0,0,0,4.45-.7,8.25,8.25,0,0,0,2.8-3.79l.24-.63.5.42a32.42,32.42,0,0,0,3.68,2.73,12,12,0,0,0,4.1,1.74A4.08,4.08,0,0,0,511,347a7.45,7.45,0,0,0,1.69-4l.09-.64.47.41a39.19,39.19,0,0,0,3.86,3,16.47,16.47,0,0,0,4.33,2.14,4.89,4.89,0,0,0,4.55-.64A6.9,6.9,0,0,0,528.16,343Z"/><path class="cls-39" d="M461.16,323a6.84,6.84,0,0,1-2,4.42,4.3,4.3,0,0,1-2.28,1,6.72,6.72,0,0,1-2.51-.16,15.73,15.73,0,0,1-4.54-2.07,39.78,39.78,0,0,1-4-3l.56-.23a8.14,8.14,0,0,1-1.79,4.48,4.56,4.56,0,0,1-2.12,1.36,5.55,5.55,0,0,1-2.49.1,12.83,12.83,0,0,1-4.43-1.83,33.31,33.31,0,0,1-3.81-2.78l.74-.21a9.16,9.16,0,0,1-3.13,4.29,6.18,6.18,0,0,1-5.25.86,13.28,13.28,0,0,1-4.63-2.47,31.76,31.76,0,0,1-3.77-3.52l.78-.23a8.67,8.67,0,0,1-2.32,4.47,5.58,5.58,0,0,1-4.81,1.43,12.6,12.6,0,0,1-4.59-1.84,31,31,0,0,1-3.91-2.91l.47-.13a6.89,6.89,0,0,1-2.51,3.23,5.26,5.26,0,0,1-4,.73,9.48,9.48,0,0,1-1.94-.59c-.58-.33-1.2-.6-1.75-1s-1.11-.74-1.61-1.18L388,324l1.57,1.23c.52.41,1.11.73,1.65,1.1s1.17.6,1.76.9a9.17,9.17,0,0,0,1.88.5,4.84,4.84,0,0,0,3.63-.8,6.37,6.37,0,0,0,2.23-3l.15-.4.32.26a30.37,30.37,0,0,0,3.89,2.76,11.87,11.87,0,0,0,4.34,1.64,4.8,4.8,0,0,0,4.1-1.25,7.82,7.82,0,0,0,2-4l.18-.87.6.64a30.86,30.86,0,0,0,3.67,3.39,12.35,12.35,0,0,0,4.29,2.26,5.29,5.29,0,0,0,4.45-.7,8.25,8.25,0,0,0,2.8-3.79l.24-.63.5.42a32.42,32.42,0,0,0,3.68,2.73,12,12,0,0,0,4.1,1.74A4.08,4.08,0,0,0,444,327a7.45,7.45,0,0,0,1.69-4l.09-.64.47.41a39.19,39.19,0,0,0,3.86,3,16.47,16.47,0,0,0,4.33,2.14,4.89,4.89,0,0,0,4.55-.64A6.9,6.9,0,0,0,461.16,323Z"/><path class="cls-39" d="M522.16,297a6.84,6.84,0,0,1-2,4.42,4.3,4.3,0,0,1-2.28,1,6.72,6.72,0,0,1-2.51-.16,15.73,15.73,0,0,1-4.54-2.07,39.78,39.78,0,0,1-4-3l.56-.23a8.14,8.14,0,0,1-1.79,4.48,4.56,4.56,0,0,1-2.12,1.36,5.55,5.55,0,0,1-2.49.1,12.83,12.83,0,0,1-4.43-1.83,33.31,33.31,0,0,1-3.81-2.78l.74-.21a9.16,9.16,0,0,1-3.13,4.29,6.18,6.18,0,0,1-5.25.86,13.28,13.28,0,0,1-4.63-2.47,31.76,31.76,0,0,1-3.77-3.52l.78-.23a8.67,8.67,0,0,1-2.32,4.47,5.58,5.58,0,0,1-4.81,1.43,12.6,12.6,0,0,1-4.59-1.84,31,31,0,0,1-3.91-2.91l.47-.13a6.89,6.89,0,0,1-2.51,3.23,5.26,5.26,0,0,1-4,.73,9.48,9.48,0,0,1-1.94-.59c-.58-.33-1.2-.6-1.75-1s-1.11-.74-1.61-1.18L449,298l1.57,1.23c.52.41,1.11.73,1.65,1.1s1.17.6,1.76.9a9.17,9.17,0,0,0,1.88.5,4.84,4.84,0,0,0,3.63-.8,6.37,6.37,0,0,0,2.23-3l.15-.4.32.26a30.37,30.37,0,0,0,3.89,2.76,11.87,11.87,0,0,0,4.34,1.64,4.8,4.8,0,0,0,4.1-1.25,7.82,7.82,0,0,0,2-4l.18-.87.6.64a30.86,30.86,0,0,0,3.67,3.39,12.35,12.35,0,0,0,4.29,2.26,5.29,5.29,0,0,0,4.45-.7,8.25,8.25,0,0,0,2.8-3.79l.24-.63.5.42a32.42,32.42,0,0,0,3.68,2.73,12,12,0,0,0,4.1,1.74A4.08,4.08,0,0,0,505,301a7.45,7.45,0,0,0,1.69-4l.09-.64.47.41a39.19,39.19,0,0,0,3.86,3,16.47,16.47,0,0,0,4.33,2.14,4.89,4.89,0,0,0,4.55-.64A6.9,6.9,0,0,0,522.16,297Z"/><path class="cls-39" d="M385.16,363a6.84,6.84,0,0,1-2,4.42,4.3,4.3,0,0,1-2.28,1,6.72,6.72,0,0,1-2.51-.16,15.73,15.73,0,0,1-4.54-2.07,39.78,39.78,0,0,1-4-3l.56-.23a8.14,8.14,0,0,1-1.79,4.48,4.56,4.56,0,0,1-2.12,1.36,5.55,5.55,0,0,1-2.49.1,12.83,12.83,0,0,1-4.43-1.83,33.31,33.31,0,0,1-3.81-2.78l.74-.21a9.16,9.16,0,0,1-3.13,4.29,6.18,6.18,0,0,1-5.25.86,13.28,13.28,0,0,1-4.63-2.47,31.76,31.76,0,0,1-3.77-3.52l.78-.23a8.67,8.67,0,0,1-2.32,4.47,5.58,5.58,0,0,1-4.81,1.43,12.6,12.6,0,0,1-4.59-1.84,31,31,0,0,1-3.91-2.91l.47-.13a6.89,6.89,0,0,1-2.51,3.23,5.26,5.26,0,0,1-4,.73,9.48,9.48,0,0,1-1.94-.59c-.58-.33-1.2-.6-1.75-1s-1.11-.74-1.61-1.18L312,364l1.57,1.23c.52.41,1.11.73,1.65,1.1s1.17.6,1.76.9a9.17,9.17,0,0,0,1.88.5,4.84,4.84,0,0,0,3.63-.8,6.37,6.37,0,0,0,2.23-3l.15-.4.32.26a30.37,30.37,0,0,0,3.89,2.76,11.87,11.87,0,0,0,4.34,1.64,4.8,4.8,0,0,0,4.1-1.25,7.82,7.82,0,0,0,2-4l.18-.87.6.64a30.86,30.86,0,0,0,3.67,3.39,12.35,12.35,0,0,0,4.29,2.26,5.29,5.29,0,0,0,4.45-.7,8.25,8.25,0,0,0,2.8-3.79l.24-.63.5.42a32.42,32.42,0,0,0,3.68,2.73,12,12,0,0,0,4.1,1.74A4.08,4.08,0,0,0,368,367a7.45,7.45,0,0,0,1.69-4l.09-.64.47.41a39.19,39.19,0,0,0,3.86,3,16.47,16.47,0,0,0,4.33,2.14,4.89,4.89,0,0,0,4.55-.64A6.9,6.9,0,0,0,385.16,363Z"/><path class="cls-39" d="M466.16,395a6.84,6.84,0,0,1-2,4.42,4.3,4.3,0,0,1-2.28,1,6.72,6.72,0,0,1-2.51-.16,15.73,15.73,0,0,1-4.54-2.07,39.78,39.78,0,0,1-4-3l.56-.23a8.14,8.14,0,0,1-1.79,4.48,4.56,4.56,0,0,1-2.12,1.36,5.55,5.55,0,0,1-2.49.1,12.83,12.83,0,0,1-4.43-1.83,33.31,33.31,0,0,1-3.81-2.78l.74-.21a9.16,9.16,0,0,1-3.13,4.29,6.18,6.18,0,0,1-5.25.86,13.28,13.28,0,0,1-4.63-2.47,31.76,31.76,0,0,1-3.77-3.52l.78-.23a8.67,8.67,0,0,1-2.32,4.47,5.58,5.58,0,0,1-4.81,1.43,12.6,12.6,0,0,1-4.59-1.84,31,31,0,0,1-3.91-2.91l.47-.13a6.89,6.89,0,0,1-2.51,3.23,5.26,5.26,0,0,1-4,.73,9.48,9.48,0,0,1-1.94-.59c-.58-.33-1.2-.6-1.75-1s-1.11-.74-1.61-1.18L393,396l1.57,1.23c.52.41,1.11.73,1.65,1.1s1.17.6,1.76.9a9.17,9.17,0,0,0,1.88.5,4.84,4.84,0,0,0,3.63-.8,6.37,6.37,0,0,0,2.23-3l.15-.4.32.26a30.37,30.37,0,0,0,3.89,2.76,11.87,11.87,0,0,0,4.34,1.64,4.8,4.8,0,0,0,4.1-1.25,7.82,7.82,0,0,0,2-4l.18-.87.6.64a30.86,30.86,0,0,0,3.67,3.39,12.35,12.35,0,0,0,4.29,2.26,5.29,5.29,0,0,0,4.45-.7,8.25,8.25,0,0,0,2.8-3.79l.24-.63.5.42a32.42,32.42,0,0,0,3.68,2.73,12,12,0,0,0,4.1,1.74A4.08,4.08,0,0,0,449,399a7.45,7.45,0,0,0,1.69-4l.09-.64.47.41a39.19,39.19,0,0,0,3.86,3,16.47,16.47,0,0,0,4.33,2.14,4.89,4.89,0,0,0,4.55-.64A6.9,6.9,0,0,0,466.16,395Z"/><path class="cls-39" d="M410.16,426a6.84,6.84,0,0,1-2,4.42,4.3,4.3,0,0,1-2.28,1,6.72,6.72,0,0,1-2.51-.16,15.73,15.73,0,0,1-4.54-2.07,39.78,39.78,0,0,1-4-3l.56-.23a8.14,8.14,0,0,1-1.79,4.48,4.56,4.56,0,0,1-2.12,1.36,5.55,5.55,0,0,1-2.49.1,12.83,12.83,0,0,1-4.43-1.83,33.31,33.31,0,0,1-3.81-2.78l.74-.21a9.16,9.16,0,0,1-3.13,4.29,6.18,6.18,0,0,1-5.25.86,13.28,13.28,0,0,1-4.63-2.47,31.76,31.76,0,0,1-3.77-3.52l.78-.23a8.67,8.67,0,0,1-2.32,4.47,5.58,5.58,0,0,1-4.81,1.43,12.6,12.6,0,0,1-4.59-1.84,31,31,0,0,1-3.91-2.91l.47-.13a6.89,6.89,0,0,1-2.51,3.23,5.26,5.26,0,0,1-4,.73,9.48,9.48,0,0,1-1.94-.59c-.58-.33-1.2-.6-1.75-1s-1.11-.74-1.61-1.18L337,427l1.57,1.23c.52.41,1.11.73,1.65,1.1s1.17.6,1.76.9a9.17,9.17,0,0,0,1.88.5,4.84,4.84,0,0,0,3.63-.8,6.37,6.37,0,0,0,2.23-3l.15-.4.32.26a30.37,30.37,0,0,0,3.89,2.76,11.87,11.87,0,0,0,4.34,1.64,4.8,4.8,0,0,0,4.1-1.25,7.82,7.82,0,0,0,2-4l.18-.87.6.64a30.86,30.86,0,0,0,3.67,3.39,12.35,12.35,0,0,0,4.29,2.26,5.29,5.29,0,0,0,4.45-.7,8.25,8.25,0,0,0,2.8-3.79l.24-.63.5.42a32.42,32.42,0,0,0,3.68,2.73,12,12,0,0,0,4.1,1.74A4.08,4.08,0,0,0,393,430a7.45,7.45,0,0,0,1.69-4l.09-.64.47.41a39.19,39.19,0,0,0,3.86,3,16.47,16.47,0,0,0,4.33,2.14,4.89,4.89,0,0,0,4.55-.64A6.9,6.9,0,0,0,410.16,426Z"/><path class="cls-39" d="M360.16,462a6.84,6.84,0,0,1-2,4.42,4.3,4.3,0,0,1-2.28,1,6.72,6.72,0,0,1-2.51-.16,15.73,15.73,0,0,1-4.54-2.07,39.78,39.78,0,0,1-4-3l.56-.23a8.14,8.14,0,0,1-1.79,4.48,4.56,4.56,0,0,1-2.12,1.36,5.55,5.55,0,0,1-2.49.1,12.83,12.83,0,0,1-4.43-1.83,33.31,33.31,0,0,1-3.81-2.78l.74-.21a9.16,9.16,0,0,1-3.13,4.29,6.18,6.18,0,0,1-5.25.86,13.28,13.28,0,0,1-4.63-2.47,31.76,31.76,0,0,1-3.77-3.52l.78-.23a8.67,8.67,0,0,1-2.32,4.47,5.58,5.58,0,0,1-4.81,1.43,12.6,12.6,0,0,1-4.59-1.84,31,31,0,0,1-3.91-2.91l.47-.13a6.89,6.89,0,0,1-2.51,3.23,5.26,5.26,0,0,1-4,.73,9.48,9.48,0,0,1-1.94-.59c-.58-.33-1.2-.6-1.75-1s-1.11-.74-1.61-1.18L287,463l1.57,1.23c.52.41,1.11.73,1.65,1.1s1.17.6,1.76.9a9.17,9.17,0,0,0,1.88.5,4.84,4.84,0,0,0,3.63-.8,6.37,6.37,0,0,0,2.23-3l.15-.4.32.26a30.37,30.37,0,0,0,3.89,2.76,11.87,11.87,0,0,0,4.34,1.64,4.8,4.8,0,0,0,4.1-1.25,7.82,7.82,0,0,0,2-4l.18-.87.6.64a30.86,30.86,0,0,0,3.67,3.39,12.35,12.35,0,0,0,4.29,2.26,5.29,5.29,0,0,0,4.45-.7,8.25,8.25,0,0,0,2.8-3.79l.24-.63.5.42a32.42,32.42,0,0,0,3.68,2.73,12,12,0,0,0,4.1,1.74A4.08,4.08,0,0,0,343,466a7.45,7.45,0,0,0,1.69-4l.09-.64.47.41a39.19,39.19,0,0,0,3.86,3,16.47,16.47,0,0,0,4.33,2.14,4.89,4.89,0,0,0,4.55-.64A6.9,6.9,0,0,0,360.16,462Z"/><path class="cls-39" d="M468.16,487a6.84,6.84,0,0,1-2,4.42,4.3,4.3,0,0,1-2.28,1,6.72,6.72,0,0,1-2.51-.16,15.73,15.73,0,0,1-4.54-2.07,39.78,39.78,0,0,1-4-3l.56-.23a8.14,8.14,0,0,1-1.79,4.48,4.56,4.56,0,0,1-2.12,1.36,5.55,5.55,0,0,1-2.49.1,12.83,12.83,0,0,1-4.43-1.83,33.31,33.31,0,0,1-3.81-2.78l.74-.21a9.16,9.16,0,0,1-3.13,4.29,6.18,6.18,0,0,1-5.25.86,13.28,13.28,0,0,1-4.63-2.47,31.76,31.76,0,0,1-3.77-3.52l.78-.23a8.67,8.67,0,0,1-2.32,4.47,5.58,5.58,0,0,1-4.81,1.43,12.6,12.6,0,0,1-4.59-1.84,31,31,0,0,1-3.91-2.91l.47-.13a6.89,6.89,0,0,1-2.51,3.23,5.26,5.26,0,0,1-4,.73,9.48,9.48,0,0,1-1.94-.59c-.58-.33-1.2-.6-1.75-1s-1.11-.74-1.61-1.18L395,488l1.57,1.23c.52.41,1.11.73,1.65,1.1s1.17.6,1.76.9a9.17,9.17,0,0,0,1.88.5,4.84,4.84,0,0,0,3.63-.8,6.37,6.37,0,0,0,2.23-3l.15-.4.32.26a30.37,30.37,0,0,0,3.89,2.76,11.87,11.87,0,0,0,4.34,1.64,4.8,4.8,0,0,0,4.1-1.25,7.82,7.82,0,0,0,2-4l.18-.87.6.64a30.86,30.86,0,0,0,3.67,3.39,12.35,12.35,0,0,0,4.29,2.26,5.29,5.29,0,0,0,4.45-.7,8.25,8.25,0,0,0,2.8-3.79l.24-.63.5.42a32.42,32.42,0,0,0,3.68,2.73,12,12,0,0,0,4.1,1.74A4.08,4.08,0,0,0,451,491a7.45,7.45,0,0,0,1.69-4l.09-.64.47.41a39.19,39.19,0,0,0,3.86,3,16.47,16.47,0,0,0,4.33,2.14,4.89,4.89,0,0,0,4.55-.64A6.9,6.9,0,0,0,468.16,487Z"/><path class="cls-39" d="M381.16,501a6.84,6.84,0,0,1-2,4.42,4.3,4.3,0,0,1-2.28,1,6.72,6.72,0,0,1-2.51-.16,15.73,15.73,0,0,1-4.54-2.07,39.78,39.78,0,0,1-4-3l.56-.23a8.14,8.14,0,0,1-1.79,4.48,4.56,4.56,0,0,1-2.12,1.36,5.55,5.55,0,0,1-2.49.1,12.83,12.83,0,0,1-4.43-1.83,33.31,33.31,0,0,1-3.81-2.78l.74-.21a9.16,9.16,0,0,1-3.13,4.29,6.18,6.18,0,0,1-5.25.86,13.28,13.28,0,0,1-4.63-2.47,31.76,31.76,0,0,1-3.77-3.52l.78-.23a8.67,8.67,0,0,1-2.32,4.47,5.58,5.58,0,0,1-4.81,1.43,12.6,12.6,0,0,1-4.59-1.84,31,31,0,0,1-3.91-2.91l.47-.13a6.89,6.89,0,0,1-2.51,3.23,5.26,5.26,0,0,1-4,.73,9.48,9.48,0,0,1-1.94-.59c-.58-.33-1.2-.6-1.75-1s-1.11-.74-1.61-1.18L308,502l1.57,1.23c.52.41,1.11.73,1.65,1.1s1.17.6,1.76.9a9.17,9.17,0,0,0,1.88.5,4.84,4.84,0,0,0,3.63-.8,6.37,6.37,0,0,0,2.23-3l.15-.4.32.26a30.37,30.37,0,0,0,3.89,2.76,11.87,11.87,0,0,0,4.34,1.64,4.8,4.8,0,0,0,4.1-1.25,7.82,7.82,0,0,0,2-4l.18-.87.6.64a30.86,30.86,0,0,0,3.67,3.39,12.35,12.35,0,0,0,4.29,2.26,5.29,5.29,0,0,0,4.45-.7,8.25,8.25,0,0,0,2.8-3.79l.24-.63.5.42a32.42,32.42,0,0,0,3.68,2.73,12,12,0,0,0,4.1,1.74A4.08,4.08,0,0,0,364,505a7.45,7.45,0,0,0,1.69-4l.09-.64.47.41a39.19,39.19,0,0,0,3.86,3,16.47,16.47,0,0,0,4.33,2.14,4.89,4.89,0,0,0,4.55-.64A6.9,6.9,0,0,0,381.16,501Z"/><path class="cls-40" d="M584.91,416a6.8,6.8,0,0,0-3.26-4.57c.06-1.47,0-5.1-2.11-7.42a6.15,6.15,0,0,0-4.32-2c-1-1.87-4.84-7.9-9.7-7h-4.42c-4.87-.89-8.66,5.15-9.7,7a6.15,6.15,0,0,0-4.32,2c-2.08,2.32-2.17,5.95-2.11,7.42A6.8,6.8,0,0,0,541.7,416c-.58,3.36,1.71,6.57,2.37,7.41.66,3,2.09,5.16,4.26,6.34,3.33,1.8,7.31.74,8.61.3a8.15,8.15,0,0,0,3.38.81,5.19,5.19,0,0,0,3-.86,5.19,5.19,0,0,0,3,.86,8.15,8.15,0,0,0,3.38-.81c1.3.43,5.29,1.5,8.61-.3,2.17-1.18,3.6-3.31,4.26-6.34C583.2,422.6,585.49,419.39,584.91,416Z"/><line class="cls-41" x1="563" y1="432" x2="563" y2="414"/><line class="cls-42" x1="563.27" y1="414.97" x2="555.41" y2="408.74"/><line class="cls-42" x1="563.41" y1="414.97" x2="571.27" y2="408.74"/><line class="cls-42" x1="563.41" y1="426.97" x2="573.18" y2="419.23"/><line class="cls-42" x1="563.18" y1="426.97" x2="553.41" y2="419.23"/><path class="cls-40" d="M433.41,260s5.59-1,5.59-5c0,0,7-2,6-7,0,0,1-3,5-2,0,0,5-2,4-7a7.1,7.1,0,0,0,4-8s6-5,1-12c0,0,3-8-4-10,0,0,0-8-6-8,0,0-4-6.67-10-1.33,0,0,0-6.67-6-6.67s-7,5-7,5-6,1-6,7c0,0-6,5,0,10a8.23,8.23,0,0,0,2,11s-2,9,4,11c0,0-2,6,2,8C428,245,425.82,251,433.41,260Z"/><line class="cls-41" x1="433" y1="271" x2="433" y2="201"/><line class="cls-42" x1="432.27" y1="226.97" x2="424.41" y2="220.74"/><line class="cls-42" x1="433.41" y1="214.97" x2="441.27" y2="208.74"/><line class="cls-42" x1="433.41" y1="243.97" x2="443.18" y2="236.23"/><line class="cls-42" x1="433.18" y1="255.97" x2="423.41" y2="248.23"/><path class="cls-40" d="M273.59,250s-5.59-1-5.59-5c0,0-7-2-6-7,0,0-1-3-5-2,0,0-5-2-4-7a7.1,7.1,0,0,1-4-8s-6-5-1-12c0,0-3-8,4-10,0,0,0-8,6-8,0,0,4-6.67,10-1.33,0,0,0-6.67,6-6.67s14,10,14,10,6,1,6,7c0,0,6,5,0,10a8.23,8.23,0,0,1-2,11s2,9-4,11c0,0,2,6-2,8C286,240,281.18,241,273.59,250Z"/><line class="cls-41" x1="274" y1="261" x2="274" y2="191"/><line class="cls-42" x1="274.73" y1="216.97" x2="282.59" y2="210.74"/><line class="cls-42" x1="273.59" y1="204.97" x2="265.73" y2="198.74"/><line class="cls-42" x1="273.59" y1="233.97" x2="263.82" y2="226.23"/><line class="cls-42" x1="273.82" y1="245.97" x2="283.59" y2="238.23"/><path class="cls-40" d="M30.59,117S25,116,25,112c0,0-7-2-6-7,0,0-1-3-5-2,0,0-5-2-4-7a7.1,7.1,0,0,1-4-8S0,83,5,76c0,0-3-8,4-10,0,0,0-8,6-8,0,0,4-6.67,10-1.33,0,0,0-6.67,6-6.67S45,60,45,60s6,1,6,7c0,0,6,5,0,10a8.23,8.23,0,0,1-2,11s2,9-4,11c0,0,2,6-2,8C43,107,38.18,108,30.59,117Z"/><line class="cls-41" x1="31" y1="128" x2="31" y2="58"/><line class="cls-42" x1="31.73" y1="83.97" x2="39.59" y2="77.74"/><line class="cls-42" x1="30.59" y1="71.97" x2="22.73" y2="65.74"/><line class="cls-42" x1="30.59" y1="100.97" x2="20.82" y2="93.23"/><line class="cls-42" x1="30.82" y1="112.97" x2="40.59" y2="105.23"/><path class="cls-40" d="M451.59,69S446,68,446,64c0,0-7-2-6-7,0,0-1-3-5-2,0,0-5-2-4-7a7.1,7.1,0,0,1-4-8s-6-5-1-12c0,0-3-8,4-10,0,0,0-8,6-8,0,0,4-6.67,10-1.33,0,0,0-6.67,6-6.67s14,10,14,10,6,1,6,7c0,0,6,5,0,10a8.23,8.23,0,0,1-2,11s2,9-4,11c0,0,2,6-2,8C464,59,459.18,60,451.59,69Z"/><line class="cls-41" x1="452" y1="80" x2="452" y2="10"/><line class="cls-42" x1="452.73" y1="35.97" x2="460.59" y2="29.74"/><line class="cls-42" x1="451.59" y1="23.97" x2="443.73" y2="17.74"/><line class="cls-42" x1="451.59" y1="52.97" x2="441.82" y2="45.23"/><line class="cls-42" x1="451.82" y1="64.97" x2="461.59" y2="57.23"/><path class="cls-40" d="M31.59,408S26,407,26,403c0,0-7-2-6-7,0,0-1-3-5-2,0,0-5-2-4-7a7.1,7.1,0,0,1-4-8s-6-5-1-12c0,0-3-8,4-10,0,0,0-8,6-8,0,0,4-6.67,10-1.33,0,0,0-6.67,6-6.67s14,10,14,10,6,1,6,7c0,0,6,5,0,10a8.23,8.23,0,0,1-2,11s2,9-4,11c0,0,2,6-2,8C44,398,39.18,399,31.59,408Z"/><line class="cls-41" x1="32" y1="419" x2="32" y2="349"/><line class="cls-42" x1="32.73" y1="374.97" x2="40.59" y2="368.74"/><line class="cls-42" x1="31.59" y1="362.97" x2="23.73" y2="356.74"/><line class="cls-42" x1="31.59" y1="391.97" x2="21.82" y2="384.23"/><line class="cls-42" x1="31.82" y1="403.97" x2="41.59" y2="396.23"/><path class="cls-40" d="M795.91,329a6.8,6.8,0,0,0-3.26-4.57c.06-1.47,0-5.1-2.11-7.42a6.15,6.15,0,0,0-4.32-2c-1-1.87-4.84-7.9-9.7-7h-4.42c-4.87-.89-8.66,5.15-9.7,7a6.15,6.15,0,0,0-4.32,2c-2.08,2.32-2.17,5.95-2.11,7.42A6.8,6.8,0,0,0,752.7,329c-.58,3.36,1.71,6.57,2.37,7.41.66,3,2.09,5.16,4.26,6.34,3.33,1.8,7.31.74,8.61.3a8.15,8.15,0,0,0,3.38.81,5.55,5.55,0,0,1,6,0,8.15,8.15,0,0,0,3.38-.81c1.3.43,5.29,1.5,8.61-.3,2.17-1.18,3.6-3.31,4.26-6.34C794.2,335.6,796.49,332.39,795.91,329Z"/><line class="cls-41" x1="774" y1="345" x2="774" y2="327"/><line class="cls-42" x1="774.27" y1="327.97" x2="766.41" y2="321.74"/><line class="cls-42" x1="774.41" y1="327.97" x2="782.27" y2="321.74"/><line class="cls-42" x1="774.41" y1="339.97" x2="784.18" y2="332.23"/><line class="cls-42" x1="774.18" y1="339.97" x2="764.41" y2="332.23"/><path class="cls-40" d="M791.91,776a6.8,6.8,0,0,0-3.26-4.57c.06-1.47,0-5.1-2.11-7.42a6.15,6.15,0,0,0-4.32-2c-1-1.87-4.84-7.9-9.7-7h-4.42c-4.87-.89-8.66,5.15-9.7,7a6.15,6.15,0,0,0-4.32,2c-2.08,2.32-2.17,5.95-2.11,7.42A6.8,6.8,0,0,0,748.7,776c-.58,3.36,1.71,6.57,2.37,7.41.66,3,2.09,5.16,4.26,6.34,3.33,1.8,7.31.74,8.61.3a8.15,8.15,0,0,0,3.38.81,5.55,5.55,0,0,1,6,0,8.15,8.15,0,0,0,3.38-.81c1.3.43,5.29,1.5,8.61-.3,2.17-1.18,3.6-3.31,4.26-6.34C790.2,782.6,792.49,779.39,791.91,776Z"/><line class="cls-41" x1="770" y1="792" x2="770" y2="774"/><line class="cls-42" x1="770.27" y1="774.97" x2="762.41" y2="768.74"/><line class="cls-42" x1="770.41" y1="774.97" x2="778.27" y2="768.74"/><line class="cls-42" x1="770.41" y1="786.97" x2="780.18" y2="779.23"/><line class="cls-42" x1="770.18" y1="786.97" x2="760.41" y2="779.23"/><path class="cls-40" d="M197.91,775a6.8,6.8,0,0,0-3.26-4.57c.06-1.47,0-5.1-2.11-7.42a6.15,6.15,0,0,0-4.32-2c-1-1.87-4.84-7.9-9.7-7h-4.42c-4.87-.89-8.66,5.15-9.7,7a6.15,6.15,0,0,0-4.32,2c-2.08,2.32-2.17,5.95-2.11,7.42A6.8,6.8,0,0,0,154.7,775c-.58,3.36,1.71,6.57,2.37,7.41.66,3,2.09,5.16,4.26,6.34,3.33,1.8,7.31.74,8.61.3a8.15,8.15,0,0,0,3.38.81,5.19,5.19,0,0,0,3-.86,5.19,5.19,0,0,0,3,.86,8.15,8.15,0,0,0,3.38-.81c1.3.43,5.29,1.5,8.61-.3,2.17-1.18,3.6-3.31,4.26-6.34C196.2,781.6,198.49,778.39,197.91,775Z"/><line class="cls-41" x1="176" y1="791" x2="176" y2="773"/><line class="cls-42" x1="176.27" y1="773.97" x2="168.41" y2="767.74"/><line class="cls-42" x1="176.41" y1="773.97" x2="184.27" y2="767.74"/><line class="cls-42" x1="176.41" y1="785.97" x2="186.18" y2="778.23"/><line class="cls-42" x1="176.18" y1="785.97" x2="166.41" y2="778.23"/><path class="cls-40" d="M543.91,401a6.8,6.8,0,0,0-3.26-4.57c.06-1.47,0-5.1-2.11-7.42a6.15,6.15,0,0,0-4.32-2c-1-1.87-4.84-7.9-9.7-7h-4.42c-4.87-.89-8.66,5.15-9.7,7a6.15,6.15,0,0,0-4.32,2c-2.08,2.32-2.17,5.95-2.11,7.42A6.8,6.8,0,0,0,500.7,401c-.58,3.36,1.71,6.57,2.37,7.41.66,3,2.09,5.16,4.26,6.34,3.33,1.8,7.31.74,8.61.3a8.15,8.15,0,0,0,3.38.81,5.19,5.19,0,0,0,3-.86,5.19,5.19,0,0,0,3,.86,8.15,8.15,0,0,0,3.38-.81c1.3.43,5.29,1.5,8.61-.3,2.17-1.18,3.6-3.31,4.26-6.34C542.2,407.6,544.49,404.39,543.91,401Z"/><line class="cls-41" x1="522" y1="417" x2="522" y2="399"/><line class="cls-42" x1="522.27" y1="399.97" x2="514.41" y2="393.74"/><line class="cls-42" x1="522.41" y1="399.97" x2="530.27" y2="393.74"/><line class="cls-42" x1="522.41" y1="411.97" x2="532.18" y2="404.23"/><line class="cls-42" x1="522.18" y1="411.97" x2="512.41" y2="404.23"/><polygon class="cls-27" points="96 119 76 119 78 117 94 117 96 119"/><polygon class="cls-10" points="92 118 81 118 81 111 82 109 91 109 92 111 92 118"/><rect class="cls-10" x="85" y="68" width="3" height="45"/><polygon class="cls-27" points="89 69 84 69 82 66 91 66 89 69"/><rect class="cls-43" x="81" y="53" width="10" height="13"/><rect class="cls-44" x="80" y="53" width="13" height="2"/><polygon class="cls-10" points="93 53 80 53 85 46 88 46 93 53"/><rect class="cls-10" x="79" y="50" width="14" height="3"/><polygon class="cls-27" points="106 386 86 386 88 384 104 384 106 386"/><polygon class="cls-10" points="102 385 91 385 91 378 92 376 101 376 102 378 102 385"/><rect class="cls-10" x="95" y="335" width="3" height="45"/><polygon class="cls-27" points="99 336 94 336 92 333 101 333 99 336"/><rect class="cls-43" x="91" y="320" width="10" height="13"/><rect class="cls-44" x="90" y="320" width="13" height="2"/><polygon class="cls-10" points="103 320 90 320 95 313 98 313 103 320"/><rect class="cls-10" x="89" y="317" width="14" height="3"/><polygon class="cls-27" points="113 773 93 773 95 771 111 771 113 773"/><polygon class="cls-10" points="109 772 98 772 98 765 99 763 108 763 109 765 109 772"/><rect class="cls-10" x="102" y="722" width="3" height="45"/><polygon class="cls-27" points="106 723 101 723 99 720 108 720 106 723"/><rect class="cls-43" x="98" y="707" width="10" height="13"/><rect class="cls-44" x="97" y="707" width="13" height="2"/><polygon class="cls-10" points="110 707 97 707 102 700 105 700 110 707"/><rect class="cls-10" x="96" y="704" width="14" height="3"/><polygon class="cls-27" points="724 756 704 756 706 754 722 754 724 756"/><polygon class="cls-10" points="720 755 709 755 709 748 710 746 719 746 720 748 720 755"/><rect class="cls-10" x="713" y="705" width="3" height="45"/><polygon class="cls-27" points="717 706 712 706 710 703 719 703 717 706"/><rect class="cls-43" x="709" y="690" width="10" height="13"/><rect class="cls-44" x="708" y="690" width="13" height="2"/><polygon class="cls-10" points="721 690 708 690 713 683 716 683 721 690"/><rect class="cls-10" x="707" y="687" width="14" height="3"/><polygon class="cls-27" points="717 403 697 403 699 401 715 401 717 403"/><polygon class="cls-10" points="713 402 702 402 702 395 703 393 712 393 713 395 713 402"/><rect class="cls-10" x="706" y="352" width="3" height="45"/><polygon class="cls-27" points="710 353 705 353 703 350 712 350 710 353"/><rect class="cls-43" x="702" y="337" width="10" height="13"/><rect class="cls-44" x="701" y="337" width="13" height="2"/><polygon class="cls-10" points="714 337 701 337 706 330 709 330 714 337"/><rect class="cls-10" x="700" y="334" width="14" height="3"/><polygon class="cls-27" points="761 96 741 96 743 94 759 94 761 96"/><polygon class="cls-10" points="757 95 746 95 746 88 747 86 756 86 757 88 757 95"/><rect class="cls-10" x="750" y="45" width="3" height="45"/><polygon class="cls-27" points="754 46 749 46 747 43 756 43 754 46"/><rect class="cls-43" x="746" y="30" width="10" height="13"/><rect class="cls-44" x="745" y="30" width="13" height="2"/><polygon class="cls-10" points="758 30 745 30 750 23 753 23 758 30"/><rect class="cls-10" x="744" y="27" width="14" height="3"/><polygon class="cls-27" points="413 95 393 95 395 93 411 93 413 95"/><polygon class="cls-10" points="409 94 398 94 398 87 399 85 408 85 409 87 409 94"/><rect class="cls-10" x="402" y="44" width="3" height="45"/><polygon class="cls-27" points="406 45 401 45 399 42 408 42 406 45"/><rect class="cls-43" x="398" y="29" width="10" height="13"/><rect class="cls-44" x="397" y="29" width="13" height="2"/><polygon class="cls-10" points="410 29 397 29 402 22 405 22 410 29"/><rect class="cls-10" x="396" y="26" width="14" height="3"/><rect class="cls-4" x="65" y="313" width="3" height="21"/><path class="cls-4" d="M82,320H56s-1-11,4-11H80C83,309,82,320,82,320Z"/><path d="M79,310H77s-2.87,0-2.44,10H81S82,310,79,310Z"/><rect class="cls-8" x="370" y="80" width="3" height="21"/><path class="cls-8" d="M387,87H361s-1-11,4-11h20C388,76,387,87,387,87Z"/><path d="M384,77h-2s-2.87,0-2.44,10H386S387,77,384,77Z"/><rect class="cls-13" x="609" y="81" width="3" height="21"/><path class="cls-13" d="M626,88H600s-1-11,4-11h20C627,77,626,88,626,88Z"/><path d="M623,78h-2s-2.87,0-2.44,10H625S626,78,623,78Z"/><rect class="cls-17" x="711" y="302" width="3" height="21"/><path class="cls-17" d="M728,309H702s-1-11,4-11h20C729,298,728,309,728,309Z"/><path d="M725,299h-2s-2.87,0-2.44,10H727S728,299,725,299Z"/><rect class="cls-7" x="704" y="611" width="3" height="21"/><path class="cls-7" d="M721,618H695s-1-11,4-11h20C722,607,721,618,721,618Z"/><path d="M718,608h-2s-2.87,0-2.44,10H720S721,608,718,608Z"/><rect class="cls-29" x="418" y="691" width="3" height="21"/><path class="cls-29" d="M435,698H409s-1-11,4-11h20C436,687,435,698,435,698Z"/><path d="M432,688h-2s-2.87,0-2.44,10H434S435,688,432,688Z"/></g></svg>