<svg xmlns="http://www.w3.org/2000/svg" width="1904.75" height="803.75" viewBox="0 0 1904.75 803.75"><defs><style>.cls-1{fill:#4295b2;}.cls-2{fill:#eab47f;}.cls-3{fill:#245a66;}.cls-4{fill:none;stroke:#000;stroke-miterlimit:10;stroke-width:6px;}.cls-5{fill:#fcee21;}</style></defs><title>down</title><g id="Layer_5" data-name="Layer 5"><rect class="cls-1" x="1518" y="541" width="144" height="232" transform="matrix(1, -0.01, 0.01, 1, -7.78, 19.15)"/><rect class="cls-1" x="1354" y="526" width="144" height="232"/><circle class="cls-2" cx="1685.8" cy="516.3" r="56.58" transform="translate(117.08 1321.05) rotate(-44.19)"/><rect class="cls-1" x="1601.84" y="312.14" width="121" height="209.1" transform="translate(-47.68 303.39) rotate(-10.28)"/><circle class="cls-2" cx="1319.73" cy="516.3" r="56.58" transform="translate(29.66 1102.8) rotate(-45.81)"/><rect class="cls-1" x="1282.69" y="312.14" width="121" height="209.1" transform="translate(2590.44 1066.43) rotate(-169.72)"/><polygon class="cls-3" points="1657.56 347.49 1574.15 362.62 1608.68 552.99 1657.56 347.49"/><rect class="cls-1" x="1351.47" y="288.71" width="308.61" height="377.71" transform="translate(-5.63 18.12) rotate(-0.69)"/><rect class="cls-3" x="1503.61" y="431.45" width="17.35" height="297.9" transform="translate(2074.48 -938.75) rotate(89.31)"/><circle class="cls-2" cx="1508.33" cy="254.58" r="163.72"/><circle cx="1562.85" cy="253.95" r="24.63"/><circle cx="1455.33" cy="254.09" r="24.63"/><path class="cls-4" d="M1566.85,348.78s-43.47-36.22-110.11,10.14"/><path class="cls-1" d="M1658,172l6.77-64.46s5.8-21.73-20.28-23.18-202.84-47.81-299.92,36.22L1353,178S1500,206,1658,172Z"/><circle class="cls-5" cx="1512" cy="134" r="36"/><path d="M1347.61,176.56S1470,270,1665,168c0,0-91.39,14.28-158.7,14.28S1347.61,176.56,1347.61,176.56Z"/><rect class="cls-1" x="547" y="511" width="144" height="232" transform="matrix(1, -0.01, 0.01, 1, -7.49, 7.48)"/><rect class="cls-1" x="383" y="536" width="144" height="232"/><circle class="cls-2" cx="714.8" cy="516.3" r="56.58" transform="translate(-157.63 644.27) rotate(-44.19)"/><rect class="cls-1" x="630.84" y="312.14" width="121" height="209.1" transform="translate(-63.27 130.08) rotate(-10.28)"/><circle class="cls-2" cx="348.73" cy="516.3" r="56.58" transform="translate(-264.56 406.52) rotate(-45.81)"/><rect class="cls-1" x="311.69" y="312.14" width="121" height="209.1" transform="translate(664.03 893.12) rotate(-169.72)"/><polygon class="cls-3" points="686.56 347.49 603.15 362.62 637.68 552.99 686.56 347.49"/><rect class="cls-1" x="380.47" y="288.71" width="308.61" height="377.71" transform="translate(-5.7 6.46) rotate(-0.69)"/><rect class="cls-3" x="532.61" y="431.45" width="17.35" height="297.9" transform="translate(1115.14 32.18) rotate(89.31)"/><circle class="cls-2" cx="537.33" cy="254.58" r="163.72"/><circle cx="591.85" cy="253.95" r="24.63"/><circle cx="484.33" cy="254.09" r="24.63"/><path class="cls-4" d="M595.85,348.78s-43.47-36.22-110.11,10.14"/><path class="cls-1" d="M687,172l6.77-64.46s5.8-21.73-20.28-23.18S470.64,36.54,373.57,120.58L382,178S529,206,687,172Z"/><circle class="cls-5" cx="541" cy="134" r="36"/><path d="M376.61,176.56S499,270,694,168c0,0-91.39,14.28-158.7,14.28S376.61,176.56,376.61,176.56Z"/></g></svg>