<svg xmlns="http://www.w3.org/2000/svg" width="863" height="972" viewBox="0 0 863 972"><defs><style>.cls-1{fill:#4295b2;}.cls-2{fill:#245a66;}.cls-3{fill:#eab47f;}.cls-4{fill:#cc9c71;}.cls-5{fill:none;stroke:#000;stroke-miterlimit:10;stroke-width:6px;}.cls-6{fill:#fcee21;}</style></defs><title>failed</title><g id="Layer_5" data-name="Layer 5"><rect class="cls-1" x="395.12" y="667.6" width="125.92" height="202.88" transform="matrix(1, -0.08, 0.08, 1, -56.84, 36.84)"/><rect class="cls-1" x="247.98" y="657.76" width="125.92" height="202.88" transform="translate(42.12 -15.92) rotate(3.15)"/><polygon class="cls-1" points="518.45 731.2 250.95 695.46 294.69 368.07 558 423 518.45 731.2"/><rect class="cls-2" x="387.82" y="503.13" width="13.69" height="269.9" transform="translate(1079.4 331.39) rotate(97.61)"/><circle class="cls-3" cx="254.61" cy="599.38" r="49.48" transform="translate(-194.4 127.72) rotate(-20.58)"/><rect class="cls-1" x="225.79" y="373.49" width="105.81" height="230.86" transform="translate(120.22 -51.08) rotate(13.33)"/><circle class="cls-3" cx="576.61" cy="605.47" r="49.48" transform="translate(-248.85 472.46) rotate(-37.24)"/><rect class="cls-1" x="513.87" y="425.09" width="105.81" height="182.85" transform="translate(-29.13 33.9) rotate(-3.34)"/><path class="cls-2" d="M549,382l10.5-36.52c-19.34,5.8-78.93,22.66-123.35,8.2-74.34-24.2-76.87-118-101.07-43.62s-14.89,147.77,59.45,172A141.62,141.62,0,0,0,558.2,422.81Z"/><circle class="cls-3" cx="431.73" cy="339.93" r="141.57" transform="translate(-25.14 645.23) rotate(-71.97)"/><path class="cls-4" d="M369.32,212.87l-69.2,74.91c-.16.41-.33.81-.48,1.22,11.61,0,179.66,1,273.08,63.93a141.84,141.84,0,0,0-48.29-120l-55.7-29.6A141.07,141.07,0,0,0,369.32,212.87Z"/><path d="M516.33,357.25a77.05,77.05,0,0,1-19.46-4.06,21.29,21.29,0,1,0,41.53,2.94A79.49,79.49,0,0,1,516.33,357.25Z"/><path class="cls-5" d="M492.16,437.17s-21.53-27.37-67.59-8"/><path class="cls-1" d="M576.47,306.2l40.31-46S597,214.46,577,204,371.85,176.69,346.5,198.3s-47.21,90.4-47.21,90.4S400.79,233.76,576.47,306.2Z"/><path d="M299.35,288.72s113-39.3,315.2,51.69c0,0-78.29-101.06-277-87.55C310.19,254.72,299.35,288.72,299.35,288.72Z"/><circle class="cls-6" cx="551.27" cy="240.91" r="21.84" transform="translate(103.1 642.26) rotate(-65.45)"/><path d="M440,343.57a74.39,74.39,0,0,1-21.72-6.82,21.3,21.3,0,1,0,41.78,7.63A80.94,80.94,0,0,1,440,343.57Z"/></g></svg>