<svg xmlns="http://www.w3.org/2000/svg" width="1904.75" height="803.75" viewBox="0 0 1904.75 803.75"><defs><style>.cls-1{fill:#4295b2;}.cls-2{fill:#eab47f;}.cls-3{fill:#245a66;}.cls-4{fill:none;stroke:#000;stroke-miterlimit:10;stroke-width:6px;}.cls-5{fill:#fcee21;}</style></defs><title>left</title><g id="Layer_5" data-name="Layer 5"><rect class="cls-1" x="1326.13" y="541" width="144" height="232" transform="translate(2910.34 972.62) rotate(166.62)"/><rect class="cls-1" x="1492.13" y="528" width="144" height="232" transform="translate(3234.83 908.56) rotate(166.62)"/><circle class="cls-2" cx="1220.33" cy="554.3" r="56.58" transform="translate(-27.71 1043.04) rotate(-45.81)"/><rect class="cls-1" x="1183.29" y="350.14" width="121" height="209.1" transform="translate(2386.45 1124.08) rotate(-169.72)"/><polygon class="cls-3" points="1238.56 347.49 1321.98 362.62 1287.45 552.99 1238.56 347.49"/><rect class="cls-1" x="1286.05" y="288.71" width="308.61" height="377.71" transform="translate(2952.12 608.85) rotate(166.62)"/><rect class="cls-3" x="1450.36" y="429.95" width="17.35" height="297.9" transform="translate(1684.58 -974.5) rotate(76.62)"/><circle class="cls-2" cx="1675.8" cy="531.58" r="56.58"/><rect class="cls-3" x="1539.78" y="304.7" width="89.8" height="264" transform="translate(3143.51 -84.8) rotate(146.1)"/><rect class="cls-1" x="1545.13" y="291" width="121" height="264" transform="matrix(-0.83, 0.56, -0.56, -0.83, 3174.2, -121.56)"/><circle class="cls-2" cx="1387.8" cy="254.58" r="163.72"/><circle cx="1289.27" cy="229.95" r="24.63"/><circle cx="1387.8" cy="240.09" r="24.63"/><path class="cls-4" d="M1289.27,319.78s43.47-36.22,110.11,10.14"/><path class="cls-1" d="M1264.64,125.32l-20.28-67.79s-5.8-21.73,20.28-23.18,202.84-47.81,299.92,36.22l-17.39,123.15S1354.47,126.46,1264.64,125.32Z"/><path d="M1564.56,240.09s-100-95.63-356.42-97.07c0,0,181.11-79.69,343.38,23.18Z"/><circle class="cls-5" cx="1328.13" cy="70" r="36"/><rect class="cls-1" x="415.13" y="541" width="144" height="232" transform="translate(1010.35 1285.63) rotate(176.78)"/><rect class="cls-1" x="581.13" y="528" width="144" height="232" transform="translate(1526.77 923.37) rotate(153.14)"/><circle class="cls-2" cx="309.33" cy="554.3" r="56.58" transform="translate(-303.75 389.78) rotate(-45.81)"/><rect class="cls-1" x="272.29" y="350.14" width="121" height="209.1" transform="translate(579.08 961.48) rotate(-169.72)"/><polygon class="cls-3" points="327.56 347.49 410.98 362.62 376.45 552.99 327.56 347.49"/><rect class="cls-1" x="375.05" y="288.71" width="308.61" height="377.71" transform="translate(1154.85 819.66) rotate(166.62)"/><rect class="cls-3" x="539.36" y="429.95" width="17.35" height="297.9" transform="matrix(0.23, 0.97, -0.97, 0.23, 984.4, -88.22)"/><circle class="cls-2" cx="764.8" cy="531.58" r="56.58"/><rect class="cls-3" x="628.78" y="304.7" width="89.8" height="264" transform="translate(1476.41 423.37) rotate(146.1)"/><rect class="cls-1" x="634.13" y="291" width="121" height="264" transform="translate(1507.1 386.61) rotate(146.1)"/><circle class="cls-2" cx="476.8" cy="254.58" r="163.72" transform="translate(-25.32 54.52) rotate(-6.38)"/><circle cx="376.15" cy="241.05" r="24.63" transform="translate(-24.44 43.26) rotate(-6.38)"/><circle cx="475.19" cy="240.18" r="24.63" transform="translate(-23.73 54.26) rotate(-6.38)"/><path class="cls-4" d="M386.12,330.32s39.17-40.82,110.56-2.15"/><path class="cls-1" d="M353.64,125.32,333.36,57.54s-5.8-21.73,20.28-23.18S556.48-13.46,653.56,70.58L636.17,193.73S443.47,126.46,353.64,125.32Z"/><path d="M653.56,240.09s-100-95.63-356.42-97.07c0,0,181.11-79.69,343.38,23.18Z"/><circle class="cls-5" cx="417.13" cy="70" r="36"/></g></svg>