<svg xmlns="http://www.w3.org/2000/svg" width="309.33" height="320" viewBox="0 0 309.33 320"><defs><style>.cls-1{fill:#474747;}.cls-2{fill:#eab47f;}.cls-3{fill:#fff;}.cls-4{fill:none;stroke:#000;stroke-miterlimit:10;stroke-width:6px;}.cls-5{fill:#4295b2;}.cls-6{fill:#fcee21;}</style></defs><title>logo</title><g id="Layer_5" data-name="Layer 5"><path class="cls-1" d="M65.73,134.46,40.15,177.19S33.83,189.82,65.83,194s134.11-86.69,134.11-86.69Z"/><circle class="cls-2" cx="155.83" cy="182.77" r="110.61" transform="translate(-43.11 317.35) rotate(-83.62)"/><circle cx="219.62" cy="161" r="16.64" transform="translate(35.23 361.38) rotate(-83.62)"/><circle cx="156.92" cy="160.42" r="16.64" transform="translate(-19.93 298.55) rotate(-83.62)"/><circle class="cls-3" cx="163.72" cy="154.1" r="4.99" transform="translate(-7.61 299.69) rotate(-83.62)"/><circle class="cls-3" cx="225.91" cy="153.68" r="4.99" transform="translate(48.09 361.12) rotate(-83.62)"/><path class="cls-4" d="M145.16,216.32s20.54,32.24,73,16.08"/><path class="cls-5" d="M242.83,99.66l13.7-45.8s-28.92-26-46.54-27S55.36,74,44.36,97.62s-4.21,79.57-4.21,79.57S94.46,105.2,242.83,99.66Z"/><path d="M40.21,177.19s67.54-64.6,240.79-65.58c0,0-88.45-46.41-225.27,27.69C36.87,149.51,40.21,177.19,40.21,177.19Z"/><circle class="cls-6" cx="203.73" cy="61.44" r="17.07"/></g></svg>