<svg xmlns="http://www.w3.org/2000/svg" width="2883" height="803.75" viewBox="0 0 2883 803.75"><defs><style>.cls-1{fill:#4295b2;}.cls-2{fill:#eab47f;}.cls-3{fill:#245a66;}.cls-4{fill:none;stroke:#000;stroke-miterlimit:10;stroke-width:6px;}.cls-5{fill:#fcee21;}</style></defs><title>right</title><g id="Layer_5" data-name="Layer 5"><rect class="cls-1" x="1426" y="541" width="144" height="232" transform="translate(192.7 -328.82) rotate(13.38)"/><rect class="cls-1" x="1234.28" y="505.49" width="144" height="232" transform="translate(1277.5 -824.81) rotate(63.42)"/><circle class="cls-2" cx="1675.8" cy="554.3" r="56.58" transform="translate(87.77 1324.83) rotate(-44.19)"/><rect class="cls-1" x="1591.84" y="350.14" width="121" height="209.1" transform="translate(-54.62 302.21) rotate(-10.28)"/><polygon class="cls-3" points="1657.56 347.49 1574.15 362.62 1608.68 552.99 1657.56 347.49"/><rect class="cls-1" x="1301.47" y="288.71" width="308.61" height="377.71" transform="translate(150.03 -323.92) rotate(13.38)"/><rect class="cls-3" x="1428.42" y="429.95" width="17.35" height="297.9" transform="translate(2332.84 -685.22) rotate(103.38)"/><circle class="cls-2" cx="1220.33" cy="531.58" r="56.58"/><rect class="cls-3" x="1266.55" y="304.7" width="89.8" height="264" transform="translate(466.58 -657.29) rotate(33.9)"/><rect class="cls-1" x="1230" y="291" width="121" height="264" transform="translate(455.38 -647.93) rotate(33.9)"/><circle class="cls-2" cx="1508.33" cy="254.58" r="163.72"/><circle cx="1606.85" cy="229.95" r="24.63"/><circle cx="1508.33" cy="240.09" r="24.63"/><path class="cls-4" d="M1606.85,319.78s-43.47-36.22-110.11,10.14"/><path class="cls-1" d="M1631.48,125.32l20.28-67.79s5.8-21.73-20.28-23.18-202.84-47.81-299.92,36.22L1349,193.73S1541.65,126.46,1631.48,125.32Z"/><path d="M1331.57,240.09s100-95.63,356.42-97.07c0,0-181.11-79.69-343.38,23.18Z"/><circle class="cls-5" cx="1568" cy="70" r="36"/><rect class="cls-1" x="2308" y="541" width="144" height="232" transform="translate(216.64 -532.93) rotate(13.38)"/><rect class="cls-1" x="2146.28" y="535.49" width="144" height="232" transform="translate(961.72 -1289.19) rotate(40.71)"/><circle class="cls-2" cx="2625.02" cy="201.49" r="56.58" transform="translate(1580.2 2618.03) rotate(-71.01)"/><rect class="cls-1" x="2486.21" y="162.83" width="121" height="209.1" transform="translate(3869.76 2459.8) rotate(-127.1)"/><rect class="cls-1" x="2183.47" y="288.71" width="308.61" height="377.71" transform="translate(173.97 -528.02) rotate(13.38)"/><rect class="cls-3" x="2310.42" y="429.95" width="17.35" height="297.9" transform="translate(3418.94 -1543.28) rotate(103.38)"/><circle class="cls-2" cx="2102.33" cy="531.58" r="56.58"/><rect class="cls-3" x="2148.55" y="304.7" width="89.8" height="264" transform="translate(616.55 -1149.27) rotate(33.9)"/><rect class="cls-1" x="2112" y="291" width="121" height="264" transform="translate(605.35 -1139.92) rotate(33.9)"/><circle class="cls-2" cx="2390.33" cy="254.58" r="163.72"/><path class="cls-3" d="M2580.05,247.58a163.11,163.11,0,0,0-14.77-68l-126.46,95.65,73,96.5,37.09-28.06A163,163,0,0,0,2580.05,247.58Z"/><circle class="cls-2" cx="2404.33" cy="254.58" r="163.72"/><circle cx="2488.85" cy="229.95" r="24.63"/><circle cx="2390.33" cy="240.09" r="24.63"/><path class="cls-4" d="M2488.85,319.78s-43.47-36.22-110.11,10.14"/><path class="cls-1" d="M2513.48,125.32l20.28-67.79s5.8-21.73-20.28-23.18-202.84-47.81-299.92,36.22L2231,193.73S2423.65,126.46,2513.48,125.32Z"/><path d="M2213.57,240.09s100-95.63,356.42-97.07c0,0-181.11-79.69-343.38,23.18Z"/><circle class="cls-5" cx="2450" cy="70" r="36"/><rect class="cls-1" x="500.77" y="534.9" width="144" height="232" transform="translate(835.4 1477.2) rotate(-156.29)"/><rect class="cls-1" x="419" y="548" width="144" height="232" transform="translate(-202.47 215.58) rotate(-20.63)"/><circle class="cls-2" cx="764.8" cy="554.3" r="56.58" transform="translate(-169.97 689.88) rotate(-44.19)"/><rect class="cls-1" x="680.84" y="350.14" width="121" height="209.1" transform="translate(-69.25 139.62) rotate(-10.28)"/><polygon class="cls-3" points="746.56 347.49 663.15 362.62 697.68 552.99 746.56 347.49"/><rect class="cls-1" x="390.47" y="288.71" width="308.61" height="377.71" transform="translate(125.3 -113.1) rotate(13.38)"/><rect class="cls-3" x="517.42" y="429.95" width="17.35" height="297.9" transform="translate(1211.02 201.05) rotate(103.38)"/><circle class="cls-2" cx="309.33" cy="531.58" r="56.58"/><rect class="cls-3" x="355.55" y="304.7" width="89.8" height="264" transform="translate(311.69 -149.12) rotate(33.9)"/><rect class="cls-1" x="319" y="291" width="121" height="264" transform="translate(300.48 -139.77) rotate(33.9)"/><circle class="cls-2" cx="597.33" cy="254.58" r="163.72" transform="translate(277.99 819.95) rotate(-83.62)"/><circle cx="697.98" cy="241.05" r="24.63" transform="translate(380.91 907.94) rotate(-83.62)"/><circle cx="598.94" cy="240.18" r="24.63" transform="translate(293.73 808.74) rotate(-83.62)"/><path class="cls-4" d="M688,330.32s-39.17-40.82-110.56-2.15"/><path class="cls-1" d="M720.48,125.32l20.28-67.79s5.8-21.73-20.28-23.18S517.64-13.46,420.57,70.58L438,193.73S630.65,126.46,720.48,125.32Z"/><path d="M420.57,240.09S520.54,144.47,777,143c0,0-181.11-79.69-343.38,23.18Z"/><circle class="cls-5" cx="657" cy="70" r="36"/></g></svg>