<svg xmlns="http://www.w3.org/2000/svg" width="1484" height="320" viewBox="0 0 1484 320"><defs><style>.cls-1{fill:#474747;}.cls-2{fill:#eab47f;}.cls-3{fill:#fff;}.cls-4{fill:none;stroke:#000;stroke-miterlimit:10;stroke-width:6px;}.cls-5{fill:#4295b2;}.cls-6{fill:#fcee21;}.cls-7{fill:#666;}</style></defs><title>site-logo-grey</title><g id="Layer_5" data-name="Layer 5"><path class="cls-1" d="M65.73,134.46,40.15,177.19S33.83,189.82,65.83,194s134.11-86.69,134.11-86.69Z"/><circle class="cls-2" cx="155.83" cy="182.77" r="110.61" transform="translate(-43.11 317.35) rotate(-83.62)"/><circle cx="219.62" cy="161" r="16.64" transform="translate(35.23 361.38) rotate(-83.62)"/><circle cx="156.92" cy="160.42" r="16.64" transform="translate(-19.93 298.55) rotate(-83.62)"/><circle class="cls-3" cx="163.72" cy="154.1" r="4.99" transform="translate(-7.61 299.69) rotate(-83.62)"/><circle class="cls-3" cx="225.91" cy="153.68" r="4.99" transform="translate(48.09 361.12) rotate(-83.62)"/><path class="cls-4" d="M145.16,216.32s20.54,32.24,73,16.08"/><path class="cls-5" d="M242.83,99.66l13.7-45.8s-28.92-26-46.54-27S55.36,74,44.36,97.62s-4.21,79.57-4.21,79.57S94.46,105.2,242.83,99.66Z"/><path d="M40.21,177.19s67.54-64.6,240.79-65.58c0,0-88.45-46.41-225.27,27.69C36.87,149.51,40.21,177.19,40.21,177.19Z"/><circle class="cls-6" cx="203.73" cy="61.44" r="17.07"/><path class="cls-7" d="M382.27,234l.94,27.75a25.43,25.43,0,0,1,0,5.61q-.31,3.44-.31,5.92,0,4.37-5,5l-29.94.31q-4.37.31-5.61-1.09t-1.56-6.08V259.21q0-7.79-.31-11.85-1.56-30.87-1.56-73.9l.31-45.22.62-83.57q0-5,1.4-6.7T348,34.7a85.12,85.12,0,0,1,24.32-3.12,267.57,267.57,0,0,1,26.66,2.81,85.77,85.77,0,0,1,21.67,6.55q28.69,12.16,41.16,41.47a69.72,69.72,0,0,1,5.61,27.75q.31,3.44.31,10.6,0,15.28-3.43,25.57-5,18.4-20,41.16-11.85,18.09-22.76,26.82a138.7,138.7,0,0,1-19.49,13.1A59.23,59.23,0,0,1,382.27,234ZM375.72,70.87q0,20.9,1.4,45.68t3,48.49l1.25,20.58a61.86,61.86,0,0,1,6.55-2.49l5.92-2.49A50.65,50.65,0,0,0,420,157.25a73.17,73.17,0,0,0,8.11-33.05,75.39,75.39,0,0,0-3.74-23.39A43.11,43.11,0,0,0,408.93,79a42.11,42.11,0,0,0-26.35-8.73A66.81,66.81,0,0,0,375.72,70.87Z"/><path class="cls-7" d="M605.22,200A185.4,185.4,0,0,1,603,229.59q-4.37,20.27-21.52,38.67a42,42,0,0,1-13.88,9.2A47.32,47.32,0,0,1,551.28,281q-21.21.62-33.05-4.05-20.27-8.11-28.69-25.88t-9.35-42.41q-.31-3.43-.31-10,0-67.66,49.27-78a82.11,82.11,0,0,1,14.66-1.56,69.16,69.16,0,0,1,23.39,4.37q21.52,7.8,29.31,25.26t8.73,44.28Zm-91.68-10q-.31,3.12-.31,10,0,19,5.15,33.05t17,17.15a43.37,43.37,0,0,0,8.42.94q15.59,0,22.76-14.19t7.8-33.21q.31-3.43.31-10.29,0-15.59-3.43-25.26a35.41,35.41,0,0,0-10.76-15.75,24.61,24.61,0,0,0-16.06-6.08A25.08,25.08,0,0,0,530.07,151a29,29,0,0,0-12.16,15.28Q514.79,175.64,513.55,190Z"/><path class="cls-7" d="M651.06,219.92l.94,7.17q1.56,10.29,7.8,16.06t15.9,5.77a16.55,16.55,0,0,0,3.74-.31q5-.31,13.72-4.05,2.81-.94,6.24-5a10.6,10.6,0,0,0,3.12-7.17q0-5.3-5.61-8.42a51.1,51.1,0,0,0-10-4.68l-24.32-4.37q-26.51-5.3-38-24.95-1.56-3.43-1.87-4.05a72.74,72.74,0,0,1-2.18-16.22q0-24,19-37.73,16.52-11.53,40.85-11.54l7.17.31A76.74,76.74,0,0,1,699.39,122q20.89,4.68,31.81,24.63,6.23,10.29,7.8,25.26.31,3.44-.94,5t-4.37,1.56q-5.31.31-9.2.16t-6.39-.16h-7.8q-4.37,0-4.68-4.37a47.86,47.86,0,0,0-2.49-9.67q-6.24-14.34-20.58-14.34a29.68,29.68,0,0,0-13.41,2.81,15.31,15.31,0,0,0-7,6.24,18.39,18.39,0,0,0-2.34,9.35q-.31,10.6,11.54,15.59a8.07,8.07,0,0,0,4.21,1.56,35.3,35.3,0,0,1,3.9.62q2.81.31,11.69,1.09a141.53,141.53,0,0,1,16.37,2.34q17.77,3.12,29.94,20.27a18.91,18.91,0,0,1,3.59,8,54.85,54.85,0,0,1,.78,9.82,45.46,45.46,0,0,1-10,28.69q-20.58,25-50.83,24.95-20.27,0-35.39-8.42t-23.85-25.57a35.61,35.61,0,0,1-3.43-15.59q0-2.49.62-8.11.62-4.68,4.37-4.68Z"/><path class="cls-7" d="M862.16,130.43A49.59,49.59,0,0,1,864.35,146a100.73,100.73,0,0,1-1.56,16.21,151.1,151.1,0,0,1-19.65.94q-12.16,0-18.09.62v6.55l.31,50.2q.31,16.84.31,50.52,0,2.5-.62,8.11-2.81,0-6.39.16a64.7,64.7,0,0,1-7.64-.16q-5.61,0-10-.31t-7.48-.62a7.1,7.1,0,0,1-4.37-1.56q-1.25-1.24-1.56-4.68v-21.2q0-27.44-.62-84.19l-.31-3.12-5.3-.31q-7.8,0-24.63.62-5.93,0-5.92-4.05l.31-25.57q0-.62,1.25-1.87l34.61-.94V90.2l11.23-.31q3.43-.31,10.91-.31a79,79,0,0,1,14.66,1.25l1.25,39.6q6.23.31,10.76.16t7.64-.16Z"/><path class="cls-7" d="M1042.71,145.71a116.53,116.53,0,0,1-32.43,4.68q-3.74,0-11.85-.62a134.31,134.31,0,0,1-1.87-14q-1.25-20-4.68-31.81a59.1,59.1,0,0,0-6.55-13.72q-5.61-9-15.28-9a20.21,20.21,0,0,0-10.91,3.12q-10.92,6.55-18.4,19-19,33.68-19.33,65.8-.63,35.55,16.21,61.43,7.48,11.85,21.83,10.91,9.66-.94,19-8.11a30.73,30.73,0,0,0,9.67-15q3.11-11.53,5.92-28.69a14.45,14.45,0,0,1,2-4.83,5.12,5.12,0,0,1,3.59-1.72q11.85-.62,18.4-.62a70.33,70.33,0,0,1,13.72,1.25q5,1.56,6.24,3.12t.94,6.55q-.94,13.73-8.73,35.55-4.68,11.23-11.85,25.26-8.73,17.15-30.87,23.7a80.37,80.37,0,0,1-23.7,3.74q-19.65,0-39.91-11.54-34.93-20-40.85-59.87a231.15,231.15,0,0,1-1.87-29.31q0-19.65,3.74-46.46a210.75,210.75,0,0,1,10.91-42.72Q903.94,70.25,923,49q10-10.29,28.69-14a221.26,221.26,0,0,1,22.45-3.43,44.58,44.58,0,0,1,5.92-.31q24.32,0,43,23.08,10.91,13.1,15.28,35.24a262.31,262.31,0,0,1,4.37,50.52Z"/><path class="cls-7" d="M1179,200a185.37,185.37,0,0,1-2.18,29.62q-4.37,20.27-21.52,38.67a42,42,0,0,1-13.88,9.2A47.32,47.32,0,0,1,1125,281q-21.21.62-33.05-4.05-20.27-8.11-28.69-25.88t-9.35-42.41q-.31-3.43-.31-10,0-67.66,49.27-78a82.1,82.1,0,0,1,14.66-1.56,69.16,69.16,0,0,1,23.39,4.37q21.52,7.8,29.31,25.26t8.73,44.28Zm-91.68-10q-.31,3.12-.31,10,0,19,5.15,33.05t17,17.15a43.37,43.37,0,0,0,8.42.94q15.59,0,22.76-14.19t7.8-33.21q.31-3.43.31-10.29,0-15.59-3.43-25.26a35.41,35.41,0,0,0-10.76-15.75,24.61,24.61,0,0,0-16.06-6.08,25.08,25.08,0,0,0-14.34,4.68,29,29,0,0,0-12.16,15.28Q1088.54,175.64,1087.3,190Z"/><path class="cls-7" d="M1298.4,62.76l1.87,216.41h-6.86q-29.31,0-50.52-1.56l-2.18-.31a43.54,43.54,0,0,1-28.06-10.6A67.81,67.81,0,0,1,1193.94,241a78.84,78.84,0,0,1-6.55-31,68.19,68.19,0,0,1,9.2-34.46,82.07,82.07,0,0,1,24.63-26.82,79.06,79.06,0,0,1,33.21-13.56l7.8-1.56.62-.62q1.24-22.76,1.56-35.24V87.08q0-16.52,1.25-24.95h25.88Zm-33.68,109.45q-21.52,3.44-33.68,16.84-7.8,8.11-7.8,20.58a37.34,37.34,0,0,0,5.15,18.71,40.29,40.29,0,0,0,13.88,14.5,30.85,30.85,0,0,0,18.71,4.83q2.18-20.27,2.81-50.2Z"/><path class="cls-7" d="M1350.47,205.58q-.94,0,1.09,11.23t3,13.41a54.07,54.07,0,0,0,9,14.5,16.89,16.89,0,0,0,13.1,5.46,17.38,17.38,0,0,0,6.55-1.56,12.45,12.45,0,0,0,5.77-6.24,54.31,54.31,0,0,0,3-10.29,40.16,40.16,0,0,1,3-10.29q1.71-3.43,6.39-4.05a54.34,54.34,0,0,1,6.86-.31q5.3,0,15.28.62a9.84,9.84,0,0,1,4.68,1.25,3.66,3.66,0,0,1,1.25,3.12,8.2,8.2,0,0,1-.31,2.49,127.27,127.27,0,0,1-7.64,26.66,46.6,46.6,0,0,1-43.19,28.84q-16.22,0-31.34-9.35a72.49,72.49,0,0,1-24.32-24.63q-9.2-15.27-8.58-31.49,1.56-38,18.71-65.17a66.6,66.6,0,0,1,21.36-21,51.3,51.3,0,0,1,27.29-8,47,47,0,0,1,21.83,5.3q17.77,9,24,27.29t6.24,43.19q0,5-1.25,6.24t-6.24,1.56q-30.25,1.25-68,1.25Zm48-24.63q-1.25-12.47-5.92-20.27a11.3,11.3,0,0,0-9.35-5q-10,0-19,8.26t-10.91,19.18Q1368.87,182.19,1398.49,180.95Z"/></g></svg>