<svg xmlns="http://www.w3.org/2000/svg" width="863" height="972" viewBox="0 0 863 972"><defs><style>.cls-1{fill:#4295b2;}.cls-2{fill:#eab47f;}.cls-3{fill:#245a66;}.cls-4{fill:#474747;}.cls-5{fill:#fff;}.cls-6{fill:none;stroke:#000;stroke-miterlimit:10;stroke-width:6px;}.cls-7{fill:#fcee21;}.cls-8{fill:#cc9c71;}</style></defs><title>success</title><g id="Layer_5" data-name="Layer 5"><rect class="cls-1" x="437.12" y="655.6" width="125.92" height="202.88" transform="translate(-255.93 255.41) rotate(-22.99)"/><rect class="cls-1" x="226.98" y="655.76" width="125.92" height="202.88" transform="translate(267.52 -53.31) rotate(19.37)"/><circle class="cls-2" cx="618.63" cy="299.71" r="49.48" transform="translate(290.55 903.77) rotate(-87.34)"/><rect class="cls-1" x="516.22" y="282.83" width="105.81" height="182.85" transform="translate(803.29 1013.89) rotate(-143.44)"/><rect class="cls-1" x="271.64" y="384.48" width="269.87" height="330.3" transform="translate(76.37 -49) rotate(7.61)"/><rect class="cls-3" x="387.82" y="503.13" width="13.69" height="269.9" transform="translate(1079.4 331.39) rotate(97.61)"/><path class="cls-3" d="M575.58,343.14a141.57,141.57,0,0,1-156.41,125c-77.7-8.68-101.65-78.71-93-156.41S356.3,325.32,434,334c56.1,6.27,124.66-36.73,125-36s10.56-15,10.94-14.16C579.85,306.21,577.91,322.33,575.58,343.14Z"/><path class="cls-4" d="M311.56,259.59l-32.74,54.69s-8.08,16.17,32.87,21.55,171.64-111,171.64-111Z"/><circle class="cls-2" cx="426.89" cy="321.42" r="141.57" transform="translate(60.05 709.97) rotate(-83.62)"/><circle cx="508.53" cy="293.55" r="21.3" transform="translate(160.32 766.33) rotate(-83.62)"/><circle cx="428.28" cy="292.81" r="21.3" transform="translate(89.72 685.92) rotate(-83.62)"/><circle class="cls-5" cx="436.98" cy="284.72" r="6.39" transform="translate(105.49 687.38) rotate(-83.62)"/><circle class="cls-5" cx="516.57" cy="284.18" r="6.39" transform="translate(176.78 766) rotate(-83.62)"/><path class="cls-6" d="M413.22,364.36s26.29,41.26,93.38,20.58"/><path class="cls-1" d="M538.23,215l17.54-58.61s-37-33.34-59.57-34.59-197.9,60.42-212,90.6-5.39,101.84-5.39,101.84S348.33,222.14,538.23,215Z"/><path d="M278.9,314.28s86.44-82.68,308.19-83.94c0,0-113.2-59.39-288.32,35.44C274.63,278.85,278.9,314.28,278.9,314.28Z"/><circle class="cls-7" cx="488.18" cy="166.13" r="21.84"/><polygon class="cls-8" points="223 336 269 315 298.14 299.8 371 451 286 438 223 336"/><circle class="cls-2" cx="211.28" cy="279.23" r="49.48" transform="translate(-132.9 343.65) rotate(-63.49)"/><rect class="cls-1" x="215.95" y="261.1" width="105.81" height="230.86" transform="translate(688.56 571.24) rotate(150.42)"/></g></svg>