<svg xmlns="http://www.w3.org/2000/svg" width="1904.75" height="803.75" viewBox="0 0 1904.75 803.75"><defs><style>.cls-1{fill:#eab47f;}.cls-2{fill:#4295b2;}.cls-3{fill:#245a66;}</style></defs><title>up</title><g id="Layer_5" data-name="Layer 5"><circle class="cls-1" cx="1508.33" cy="254.58" r="163.72"/><rect class="cls-2" x="1518" y="541" width="144" height="232" transform="matrix(1, -0.01, 0.01, 1, -7.78, 19.15)"/><rect class="cls-2" x="1354" y="526" width="144" height="232"/><circle class="cls-1" cx="1685.8" cy="516.3" r="56.58" transform="translate(117.08 1321.05) rotate(-44.19)"/><rect class="cls-2" x="1601.84" y="312.14" width="121" height="209.1" transform="translate(-47.68 303.39) rotate(-10.28)"/><circle class="cls-1" cx="1319.73" cy="516.3" r="56.58" transform="translate(29.66 1102.8) rotate(-45.81)"/><rect class="cls-2" x="1282.69" y="312.14" width="121" height="209.1" transform="translate(2590.44 1066.43) rotate(-169.72)"/><polygon class="cls-3" points="1657.56 347.49 1574.15 362.62 1608.68 552.99 1657.56 347.49"/><rect class="cls-2" x="1351.47" y="288.71" width="308.61" height="377.71" transform="translate(-5.63 18.12) rotate(-0.69)"/><rect class="cls-3" x="1503.61" y="431.45" width="17.35" height="297.9" transform="translate(2074.48 -938.75) rotate(89.31)"/><rect class="cls-2" x="547" y="511" width="144" height="232" transform="matrix(1, -0.01, 0.01, 1, -7.49, 7.48)"/><rect class="cls-2" x="383" y="536" width="144" height="232"/><path class="cls-2" d="M1658,192l6.77-84.46s5.8-21.73-20.28-23.18-202.84-47.81-299.92,36.22L1353,198S1500,226,1658,192Z"/><circle class="cls-1" cx="537.33" cy="254.58" r="163.72"/><circle class="cls-1" cx="714.8" cy="516.3" r="56.58" transform="translate(-157.63 644.27) rotate(-44.19)"/><rect class="cls-2" x="630.84" y="312.14" width="121" height="209.1" transform="translate(-63.27 130.08) rotate(-10.28)"/><circle class="cls-1" cx="348.73" cy="516.3" r="56.58" transform="translate(-264.56 406.52) rotate(-45.81)"/><rect class="cls-2" x="311.69" y="312.14" width="121" height="209.1" transform="translate(664.03 893.12) rotate(-169.72)"/><polygon class="cls-3" points="686.56 347.49 603.15 362.62 637.68 552.99 686.56 347.49"/><rect class="cls-2" x="380.47" y="288.71" width="308.61" height="377.71" transform="translate(-5.7 6.46) rotate(-0.69)"/><rect class="cls-3" x="532.61" y="431.45" width="17.35" height="297.9" transform="translate(1115.14 32.18) rotate(89.31)"/><path class="cls-2" d="M687,192l6.77-84.46s5.8-21.73-20.28-23.18S470.64,36.54,373.57,120.58L382,198S529,226,687,192Z"/></g></svg>