<?xml version="1.0" standalone="no"?>
<!DOCTYPE svg PUBLIC "-//W3C//DTD SVG 20010904//EN"
 "http://www.w3.org/TR/2001/REC-SVG-20010904/DTD/svg10.dtd">
<svg version="1.0" xmlns="http://www.w3.org/2000/svg"
 width="80.000000pt" height="80.000000pt" viewBox="0 0 80.000000 80.000000"
 preserveAspectRatio="xMidYMid meet">
<metadata>
Created by potrace 1.11, written by Peter Selinger 2001-2013
</metadata>
<g transform="translate(0.000000,80.000000) scale(0.100000,-0.100000)"
fill="#000000" stroke="none">
<path d="M400 734 c-128 -43 -278 -114 -305 -144 -18 -20 -20 -36 -20 -144 1
-182 32 -269 126 -349 56 -48 120 -69 208 -66 227 7 368 257 256 457 -13 23
-21 42 -17 43 4 1 21 2 37 4 51 4 51 6 3 21 -27 8 -48 16 -48 17 0 1 9 30 19
64 l19 62 -32 24 c-77 59 -103 60 -246 11z"/>
</g>
</svg>
